{
    "asset": {
        "generator": "FBX2glTF",
        "version": "2.0"
    },
    "scene": 0,
    "buffers": [
        {
            "byteLength": 178524,
            "uri": "data:application/octet-stream;base64,"
        }
    ],
    "bufferViews": [
        {
            "buffer": 0,
            "byteLength": 3540,
            "byteOffset": 0,
            "target": 34963
        },
        {
            "buffer": 0,
            "byteLength": 14160,
            "byteOffset": 3540,
            "target": 34962
        },
        {
            "buffer": 0,
            "byteLength": 14160,
            "byteOffset": 17700,
            "target": 34962
        },
        {
            "buffer": 0,
            "byteLength": 18880,
            "byteOffset": 31860,
            "target": 34962
        },
        {
            "buffer": 0,
            "byteLength": 9440,
            "byteOffset": 50740,
            "target": 34962
        },
        {
            "buffer": 0,
            "byteLength": 3900,
            "byteOffset": 60180,
            "target": 34963
        },
        {
            "buffer": 0,
            "byteLength": 15600,
            "byteOffset": 64080,
            "target": 34962
        },
        {
            "buffer": 0,
            "byteLength": 15600,
            "byteOffset": 79680,
            "target": 34962
        },
        {
            "buffer": 0,
            "byteLength": 20800,
            "byteOffset": 95280,
            "target": 34962
        },
        {
            "buffer": 0,
            "byteLength": 10400,
            "byteOffset": 116080,
            "target": 34962
        },
        {
            "buffer": 0,
            "byteLength": 12,
            "byteOffset": 126480,
            "target": 34963
        },
        {
            "buffer": 0,
            "byteLength": 48,
            "byteOffset": 126492,
            "target": 34962
        },
        {
            "buffer": 0,
            "byteLength": 48,
            "byteOffset": 126540,
            "target": 34962
        },
        {
            "buffer": 0,
            "byteLength": 64,
            "byteOffset": 126588,
            "target": 34962
        },
        {
            "buffer": 0,
            "byteLength": 32,
            "byteOffset": 126652,
            "target": 34962
        },
        {
            "buffer": 0,
            "byteLength": 2736,
            "byteOffset": 126684,
            "target": 34963
        },
        {
            "buffer": 0,
            "byteLength": 11520,
            "byteOffset": 129420,
            "target": 34962
        },
        {
            "buffer": 0,
            "byteLength": 11520,
            "byteOffset": 140940,
            "target": 34962
        },
        {
            "buffer": 0,
            "byteLength": 15360,
            "byteOffset": 152460,
            "target": 34962
        },
        {
            "buffer": 0,
            "byteLength": 7680,
            "byteOffset": 167820,
            "target": 34962
        },
        {
            "buffer": 0,
            "byteLength": 36,
            "byteOffset": 175500,
            "target": 34963
        },
        {
            "buffer": 0,
            "byteLength": 216,
            "byteOffset": 175536,
            "target": 34962
        },
        {
            "buffer": 0,
            "byteLength": 216,
            "byteOffset": 175752,
            "target": 34962
        },
        {
            "buffer": 0,
            "byteLength": 288,
            "byteOffset": 175968,
            "target": 34962
        },
        {
            "buffer": 0,
            "byteLength": 144,
            "byteOffset": 176256,
            "target": 34962
        },
        {
            "buffer": 0,
            "byteLength": 108,
            "byteOffset": 176400,
            "target": 34963
        },
        {
            "buffer": 0,
            "byteLength": 504,
            "byteOffset": 176508,
            "target": 34962
        },
        {
            "buffer": 0,
            "byteLength": 504,
            "byteOffset": 177012,
            "target": 34962
        },
        {
            "buffer": 0,
            "byteLength": 672,
            "byteOffset": 177516,
            "target": 34962
        },
        {
            "buffer": 0,
            "byteLength": 336,
            "byteOffset": 178188,
            "target": 34962
        }
    ],
    "scenes": [
        {
            "name": "Root Scene",
            "nodes": [
                0
            ]
        }
    ],
    "accessors": [
        {
            "componentType": 5123,
            "type": "SCALAR",
            "count": 1770,
            "bufferView": 0,
            "byteOffset": 0
        },
        {
            "componentType": 5126,
            "type": "VEC3",
            "count": 1180,
            "bufferView": 1,
            "byteOffset": 0,
            "min": [
                -8.98068141937256,
                2.55305194854736,
                -8.65684413909912
            ],
            "max": [
                1.10125410556793,
                4.49250316619873,
                1.44146728515625
            ]
        },
        {
            "componentType": 5126,
            "type": "VEC3",
            "count": 1180,
            "bufferView": 2,
            "byteOffset": 0
        },
        {
            "componentType": 5126,
            "type": "VEC4",
            "count": 1180,
            "bufferView": 3,
            "byteOffset": 0
        },
        {
            "componentType": 5126,
            "type": "VEC2",
            "count": 1180,
            "bufferView": 4,
            "byteOffset": 0
        },
        {
            "componentType": 5123,
            "type": "SCALAR",
            "count": 1950,
            "bufferView": 5,
            "byteOffset": 0
        },
        {
            "componentType": 5126,
            "type": "VEC3",
            "count": 1300,
            "bufferView": 6,
            "byteOffset": 0,
            "min": [
                -8.97764778137207,
                -0.179721519351006,
                -8.57474899291992
            ],
            "max": [
                0.984047532081604,
                5.63857889175415,
                1.42044353485107
            ]
        },
        {
            "componentType": 5126,
            "type": "VEC3",
            "count": 1300,
            "bufferView": 7,
            "byteOffset": 0
        },
        {
            "componentType": 5126,
            "type": "VEC4",
            "count": 1300,
            "bufferView": 8,
            "byteOffset": 0
        },
        {
            "componentType": 5126,
            "type": "VEC2",
            "count": 1300,
            "bufferView": 9,
            "byteOffset": 0
        },
        {
            "componentType": 5123,
            "type": "SCALAR",
            "count": 6,
            "bufferView": 10,
            "byteOffset": 0
        },
        {
            "componentType": 5126,
            "type": "VEC3",
            "count": 4,
            "bufferView": 11,
            "byteOffset": 0,
            "min": [
                -4.00991153717041,
                5.26670265197754,
                -3.69653487205505
            ],
            "max": [
                -3.90222382545471,
                5.66157388687134,
                -3.16493105888367
            ]
        },
        {
            "componentType": 5126,
            "type": "VEC3",
            "count": 4,
            "bufferView": 12,
            "byteOffset": 0
        },
        {
            "componentType": 5126,
            "type": "VEC4",
            "count": 4,
            "bufferView": 13,
            "byteOffset": 0
        },
        {
            "componentType": 5126,
            "type": "VEC2",
            "count": 4,
            "bufferView": 14,
            "byteOffset": 0
        },
        {
            "componentType": 5123,
            "type": "SCALAR",
            "count": 1368,
            "bufferView": 15,
            "byteOffset": 0
        },
        {
            "componentType": 5126,
            "type": "VEC3",
            "count": 960,
            "bufferView": 16,
            "byteOffset": 0,
            "min": [
                -12.1213788986206,
                -0.372469693422318,
                -11.4251279830933
            ],
            "max": [
                1.66998887062073,
                5.91596603393555,
                4.63906764984131
            ]
        },
        {
            "componentType": 5126,
            "type": "VEC3",
            "count": 960,
            "bufferView": 17,
            "byteOffset": 0
        },
        {
            "componentType": 5126,
            "type": "VEC4",
            "count": 960,
            "bufferView": 18,
            "byteOffset": 0
        },
        {
            "componentType": 5126,
            "type": "VEC2",
            "count": 960,
            "bufferView": 19,
            "byteOffset": 0
        },
        {
            "componentType": 5123,
            "type": "SCALAR",
            "count": 18,
            "bufferView": 20,
            "byteOffset": 0
        },
        {
            "componentType": 5126,
            "type": "VEC3",
            "count": 18,
            "bufferView": 21,
            "byteOffset": 0,
            "min": [
                -13.423882484436,
                -1.89989801668844e-09,
                -14.5012769699097
            ],
            "max": [
                13.4238786697388,
                -1.89989801668844e-09,
                14.5012769699097
            ]
        },
        {
            "componentType": 5126,
            "type": "VEC3",
            "count": 18,
            "bufferView": 22,
            "byteOffset": 0
        },
        {
            "componentType": 5126,
            "type": "VEC4",
            "count": 18,
            "bufferView": 23,
            "byteOffset": 0
        },
        {
            "componentType": 5126,
            "type": "VEC2",
            "count": 18,
            "bufferView": 24,
            "byteOffset": 0
        },
        {
            "componentType": 5123,
            "type": "SCALAR",
            "count": 54,
            "bufferView": 25,
            "byteOffset": 0
        },
        {
            "componentType": 5126,
            "type": "VEC3",
            "count": 42,
            "bufferView": 26,
            "byteOffset": 0,
            "min": [
                -13.423882484436,
                -7.13285207748413,
                -14.5012769699097
            ],
            "max": [
                13.4238786697388,
                -1.89989801668844e-09,
                14.5012769699097
            ]
        },
        {
            "componentType": 5126,
            "type": "VEC3",
            "count": 42,
            "bufferView": 27,
            "byteOffset": 0
        },
        {
            "componentType": 5126,
            "type": "VEC4",
            "count": 42,
            "bufferView": 28,
            "byteOffset": 0
        },
        {
            "componentType": 5126,
            "type": "VEC2",
            "count": 42,
            "bufferView": 29,
            "byteOffset": 0
        }
    ],
    "samplers": [
        {}
    ],
    "materials": [
        {
            "name": "island1Materialcastle2",
            "alphaMode": "OPAQUE",
            "extras": {
                "fromFBX": {
                    "shadingModel": "Lambert",
                    "isTruePBR": false
                }
            },
            "pbrMetallicRoughness": {
                "baseColorFactor": [
                    0.403439998626709,
                    0.015760000795126,
                    0.0852000042796135,
                    1.0
                ],
                "metallicFactor": 0.200000002980232,
                "roughnessFactor": 0.800000011920929
            }
        },
        {
            "name": "island1Materialcastle1",
            "alphaMode": "OPAQUE",
            "extras": {
                "fromFBX": {
                    "shadingModel": "Lambert",
                    "isTruePBR": false
                }
            },
            "pbrMetallicRoughness": {
                "baseColorFactor": [
                    0.457831352949142,
                    0.388105928897858,
                    0.350698828697205,
                    1.0
                ],
                "metallicFactor": 0.200000002980232,
                "roughnessFactor": 0.800000011920929
            }
        },
        {
            "name": "FloorMaterial1",
            "alphaMode": "OPAQUE",
            "extras": {
                "fromFBX": {
                    "shadingModel": "Lambert",
                    "isTruePBR": false
                }
            },
            "pbrMetallicRoughness": {
                "baseColorFactor": [
                    0.0,
                    0.280080020427704,
                    0.800000011920929,
                    1.0
                ],
                "metallicFactor": 0.200000002980232,
                "roughnessFactor": 0.800000011920929
            }
        },
        {
            "name": "island1Materialtree",
            "alphaMode": "OPAQUE",
            "extras": {
                "fromFBX": {
                    "shadingModel": "Lambert",
                    "isTruePBR": false
                }
            },
            "pbrMetallicRoughness": {
                "baseColorFactor": [
                    0.1872518658638,
                    0.281599998474121,
                    0.0166144054383039,
                    1.0
                ],
                "metallicFactor": 0.200000002980232,
                "roughnessFactor": 0.800000011920929
            }
        },
        {
            "name": "island1Materialbase2",
            "alphaMode": "OPAQUE",
            "extras": {
                "fromFBX": {
                    "shadingModel": "Lambert",
                    "isTruePBR": false
                }
            },
            "pbrMetallicRoughness": {
                "baseColorFactor": [
                    0.371199995279312,
                    0.144045993685722,
                    0.0564224012196064,
                    1.0
                ],
                "metallicFactor": 0.200000002980232,
                "roughnessFactor": 0.800000011920929
            }
        }
    ],
    "meshes": [
        {
            "name": "island01castle",
            "primitives": [
                {
                    "material": 0,
                    "mode": 4,
                    "attributes": {
                        "NORMAL": 2,
                        "POSITION": 1,
                        "TANGENT": 3,
                        "TEXCOORD_0": 4
                    },
                    "indices": 0
                },
                {
                    "material": 1,
                    "mode": 4,
                    "attributes": {
                        "NORMAL": 7,
                        "POSITION": 6,
                        "TANGENT": 8,
                        "TEXCOORD_0": 9
                    },
                    "indices": 5
                },
                {
                    "material": 2,
                    "mode": 4,
                    "attributes": {
                        "NORMAL": 12,
                        "POSITION": 11,
                        "TANGENT": 13,
                        "TEXCOORD_0": 14
                    },
                    "indices": 10
                }
            ]
        },
        {
            "name": "island01trees",
            "primitives": [
                {
                    "material": 3,
                    "mode": 4,
                    "attributes": {
                        "NORMAL": 17,
                        "POSITION": 16,
                        "TANGENT": 18,
                        "TEXCOORD_0": 19
                    },
                    "indices": 15
                }
            ]
        },
        {
            "name": "Island01Base",
            "primitives": [
                {
                    "material": 3,
                    "mode": 4,
                    "attributes": {
                        "NORMAL": 22,
                        "POSITION": 21,
                        "TANGENT": 23,
                        "TEXCOORD_0": 24
                    },
                    "indices": 20
                },
                {
                    "material": 4,
                    "mode": 4,
                    "attributes": {
                        "NORMAL": 27,
                        "POSITION": 26,
                        "TANGENT": 28,
                        "TEXCOORD_0": 29
                    },
                    "indices": 25
                }
            ]
        }
    ],
    "nodes": [
        {
            "name": "RootNode",
            "translation": [
                0.0,
                0.0,
                0.0
            ],
            "rotation": [
                0.0,
                0.0,
                0.0,
                1.0
            ],
            "scale": [
                1.0,
                1.0,
                1.0
            ],
            "children": [
                1
            ]
        },
        {
            "name": "island1",
            "translation": [
                0.0,
                0.0,
                0.0
            ],
            "rotation": [
                0.0,
                0.0,
                0.0,
                1.0
            ],
            "scale": [
                1.0,
                1.0,
                1.0
            ],
            "children": [
                2,
                3,
                4
            ]
        },
        {
            "name": "island01castle",
            "translation": [
                0.0,
                0.0,
                0.0
            ],
            "rotation": [
                0.0,
                0.0,
                0.0,
                1.0
            ],
            "scale": [
                1.0,
                1.0,
                1.0
            ],
            "mesh": 0
        },
        {
            "name": "island01trees",
            "translation": [
                0.0,
                0.0,
                0.0
            ],
            "rotation": [
                0.0,
                0.0,
                0.0,
                1.0
            ],
            "scale": [
                1.0,
                1.0,
                1.0
            ],
            "mesh": 1
        },
        {
            "name": "Island01Base",
            "translation": [
                0.0,
                0.0,
                0.0
            ],
            "rotation": [
                0.0,
                0.0,
                0.0,
                1.0
            ],
            "scale": [
                1.0,
                1.0,
                1.0
            ],
            "mesh": 2
        }
    ]
}