{
    "asset": {
        "generator": "FBX2glTF",
        "version": "2.0"
    },
    "scene": 0,
    "buffers": [
        {
            "byteLength": 25488,
            "uri": "data:application/octet-stream;base64,"
        }
    ],
    "bufferViews": [
        {
            "buffer": 0,
            "byteLength": 4560,
            "byteOffset": 0,
            "target": 34963
        },
        {
            "buffer": 0,
            "byteLength": 5232,
            "byteOffset": 4560,
            "target": 34962
        },
        {
            "buffer": 0,
            "byteLength": 5232,
            "byteOffset": 9792,
            "target": 34962
        },
        {
            "buffer": 0,
            "byteLength": 6976,
            "byteOffset": 15024,
            "target": 34962
        },
        {
            "buffer": 0,
            "byteLength": 3488,
            "byteOffset": 22000,
            "target": 34962
        }
    ],
    "scenes": [
        {
            "name": "Root Scene",
            "nodes": [
                0
            ]
        }
    ],
    "accessors": [
        {
            "componentType": 5123,
            "type": "SCALAR",
            "count": 2280,
            "bufferView": 0,
            "byteOffset": 0
        },
        {
            "componentType": 5126,
            "type": "VEC3",
            "count": 436,
            "bufferView": 1,
            "byteOffset": 0,
            "min": [
                -10.0000019073486,
                -10.0,
                -10.0000047683716
            ],
            "max": [
                10.0,
                10.0,
                10.0000009536743
            ]
        },
        {
            "componentType": 5126,
            "type": "VEC3",
            "count": 436,
            "bufferView": 2,
            "byteOffset": 0
        },
        {
            "componentType": 5126,
            "type": "VEC4",
            "count": 436,
            "bufferView": 3,
            "byteOffset": 0
        },
        {
            "componentType": 5126,
            "type": "VEC2",
            "count": 436,
            "bufferView": 4,
            "byteOffset": 0
        }
    ],
    "images": [
        {
            "name": "Skybox3.png",
            "uri": "Skybox3.png"
        }
    ],
    "samplers": [
        {}
    ],
    "textures": [
        {
            "name": "file1",
            "sampler": 0,
            "source": 0
        }
    ],
    "materials": [
        {
            "name": "Skybox1",
            "alphaMode": "OPAQUE",
            "extras": {
                "fromFBX": {
                    "shadingModel": "Lambert",
                    "isTruePBR": false
                }
            },
            "pbrMetallicRoughness": {
                "baseColorTexture": {
                    "index": 0,
                    "texCoord": 0
                },
                "baseColorFactor": [
                    0.800000011920929,
                    0.800000011920929,
                    0.800000011920929,
                    1.0
                ],
                "metallicFactor": 0.200000002980232,
                "roughnessFactor": 0.800000011920929
            }
        }
    ],
    "meshes": [
        {
            "name": "Skybox",
            "primitives": [
                {
                    "material": 0,
                    "mode": 4,
                    "attributes": {
                        "NORMAL": 2,
                        "POSITION": 1,
                        "TANGENT": 3,
                        "TEXCOORD_0": 4
                    },
                    "indices": 0
                }
            ]
        }
    ],
    "cameras": [
        {
            "name": "",
            "type": "perspective",
            "perspective": {
                "znear": 0.100000001490116,
                "zfar": 10000.0,
                "aspectRatio": 1.5,
                "yfov": 0.698131680488586
            }
        }
    ],
    "nodes": [
        {
            "name": "RootNode",
            "translation": [
                0.0,
                0.0,
                0.0
            ],
            "rotation": [
                0.0,
                0.0,
                0.0,
                1.0
            ],
            "scale": [
                1.0,
                1.0,
                1.0
            ],
            "children": [
                1,
                2,
                3
            ]
        },
        {
            "name": "Skybox",
            "translation": [
                0.0,
                1.12074840068817,
                0.0
            ],
            "rotation": [
                0.0,
                0.0,
                0.0,
                1.0
            ],
            "scale": [
                1.66092228889465,
                1.66092228889465,
                1.66092228889465
            ],
            "mesh": 0
        },
        {
            "name": "pSphere1",
            "translation": [
                0.0,
                0.0,
                0.0
            ],
            "rotation": [
                0.0,
                0.0,
                0.0,
                1.0
            ],
            "scale": [
                1.0,
                1.0,
                1.0
            ]
        },
        {
            "name": "persp1",
            "translation": [
                -12.6158905029297,
                1.37823379039764,
                11.9302549362183
            ],
            "rotation": [
                -0.014639844186604,
                0.369456827640533,
                -0.0367883034050465,
                0.928403973579407
            ],
            "scale": [
                1.0,
                1.0,
                1.0
            ],
            "camera": 0
        }
    ]
}